# xmcd CD database file
#
# Track frame offsets:
#	150
#	30195
#	60356
#	96789
#	119292
#	140809
#	171259
#
# Disc length: 2685 seconds
#
# Revision: 0
# Processed by: cddbd v1.4PL0 Copyright (c) Steve Scherf et al.
# Submitted via: CDex 1.50
#
DISCID=550a7b07
DTITLE=Armin Marmolejo - Boarding Pass
DYEAR=1997
DGENRE=Jazz
TTITLE0=Boarding Pass
TTITLE1=No Que No
TTITLE2=Exiled
TTITLE3=Miyako
TTITLE4=Cedar Post
TTITLE5=Rapture
TTITLE6=Inner Urge
EXTD=YEAR: 1997
EXTT0=
EXTT1=
EXTT2=
EXTT3=
EXTT4=
EXTT5=
EXTT6=
PLAYORDER=
